<svg id="svg" version="1.1" xmlns="http://www.w3.org/2000/svg" xmlns:xlink="http://www.w3.org/1999/xlink" width="400" height="400" viewBox="0, 0, 400,400"><g id="svgg"><path id="path0" d="M244.250 89.665 C 237.652 90.118,232.922 91.047,225.000 93.447 C 224.221 93.683,222.608 94.159,221.417 94.505 C 220.225 94.850,218.200 95.443,216.917 95.822 C 215.633 96.201,213.796 96.737,212.833 97.013 C 211.871 97.289,210.633 97.657,210.083 97.830 C 208.685 98.271,205.247 99.280,203.167 99.859 C 201.157 100.419,201.166 100.417,200.833 100.549 C 200.696 100.604,199.758 100.873,198.750 101.148 C 197.742 101.423,195.829 101.954,194.500 102.330 C 193.171 102.705,191.971 103.044,191.833 103.082 C 186.397 104.601,185.034 105.428,183.909 107.887 C 183.176 109.491,183.178 109.432,182.490 161.000 C 182.125 188.454,181.637 224.379,181.406 240.833 C 180.932 274.709,180.934 276.558,181.441 277.675 C 182.410 279.811,182.740 279.982,193.417 283.905 C 194.333 284.242,195.212 284.587,195.370 284.673 C 195.527 284.759,196.277 285.051,197.036 285.322 C 197.795 285.592,199.317 286.160,200.417 286.584 C 201.517 287.008,203.092 287.609,203.917 287.921 C 204.742 288.232,206.317 288.833,207.417 289.258 C 208.517 289.682,210.129 290.287,211.000 290.602 C 211.871 290.917,212.733 291.247,212.917 291.336 C 213.268 291.507,215.355 292.297,218.000 293.260 C 218.871 293.577,219.733 293.910,219.917 294.000 C 220.100 294.090,220.963 294.424,221.833 294.742 C 222.704 295.059,224.317 295.666,225.417 296.089 C 226.517 296.513,228.017 297.081,228.750 297.351 C 229.483 297.621,230.233 297.914,230.417 298.003 C 230.729 298.153,236.270 300.252,239.250 301.349 C 239.983 301.619,240.832 301.957,241.135 302.099 C 241.438 302.242,243.201 302.580,245.052 302.851 C 246.902 303.121,250.479 303.643,253.000 304.011 C 255.521 304.379,259.646 304.980,262.167 305.348 C 264.688 305.716,268.775 306.311,271.250 306.670 C 273.725 307.029,277.063 307.519,278.667 307.759 C 283.667 308.506,285.945 308.308,291.083 306.680 C 292.275 306.302,294.188 305.704,295.333 305.350 C 296.479 304.997,298.392 304.396,299.583 304.016 C 300.775 303.635,302.688 303.034,303.833 302.679 C 304.979 302.325,307.154 301.644,308.667 301.167 C 313.015 299.795,314.450 299.349,316.500 298.733 C 317.554 298.416,318.567 298.088,318.750 298.003 C 318.933 297.919,319.983 297.579,321.083 297.249 C 323.673 296.470,326.162 295.697,329.167 294.739 C 330.496 294.315,332.521 293.679,333.667 293.326 C 334.813 292.973,336.688 292.389,337.833 292.029 C 338.979 291.668,340.817 291.099,341.917 290.763 C 343.017 290.428,344.067 290.086,344.250 290.002 C 344.433 289.918,345.483 289.579,346.583 289.249 C 348.973 288.530,351.959 287.605,354.917 286.667 C 356.108 286.289,358.021 285.689,359.167 285.334 C 360.313 284.979,362.225 284.381,363.417 284.005 C 364.608 283.630,366.333 283.095,367.250 282.817 C 370.079 281.960,370.334 281.691,370.933 278.944 C 372.764 270.543,372.854 269.528,372.091 265.841 C 371.855 264.699,371.554 262.838,371.421 261.706 L 371.180 259.646 371.952 252.698 C 372.865 244.488,372.859 244.698,372.265 241.083 C 371.846 238.539,371.785 237.646,371.667 232.333 C 371.594 229.079,371.448 225.629,371.342 224.667 C 371.236 223.704,370.885 218.942,370.561 214.083 C 369.638 200.233,369.516 198.646,369.077 194.833 C 368.570 190.420,367.787 184.858,367.344 182.511 C 367.162 181.542,366.859 179.887,366.672 178.833 C 364.835 168.469,361.281 154.709,357.487 143.277 C 356.275 139.625,356.238 140.017,357.875 139.210 C 361.291 137.527,363.370 137.395,365.650 138.720 C 366.410 139.162,367.072 139.484,367.120 139.436 C 367.542 139.014,365.646 136.833,364.236 136.118 C 362.117 135.045,356.851 135.335,355.510 136.599 C 355.303 136.794,355.183 136.578,354.644 135.038 C 354.300 134.055,353.762 132.575,353.449 131.750 C 353.136 130.925,352.539 129.350,352.123 128.250 C 351.379 126.285,350.782 124.724,349.254 120.750 C 348.832 119.650,348.293 118.225,348.059 117.583 C 347.824 116.942,347.530 116.192,347.405 115.917 C 347.281 115.642,346.948 114.784,346.666 114.010 C 345.577 111.030,343.694 108.503,341.771 107.441 C 341.415 107.244,340.889 106.957,340.603 106.802 C 340.029 106.491,338.111 105.839,333.583 104.417 C 331.933 103.899,330.171 103.334,329.667 103.161 C 329.162 102.988,328.075 102.652,327.250 102.414 C 326.425 102.176,325.600 101.911,325.417 101.827 C 325.110 101.685,324.055 101.379,318.167 99.721 C 313.886 98.515,306.789 96.817,302.250 95.912 C 300.692 95.601,298.929 95.236,298.333 95.100 C 297.737 94.964,295.862 94.624,294.167 94.345 C 292.471 94.065,290.896 93.795,290.667 93.744 C 288.798 93.328,278.398 92.044,272.500 91.501 C 270.529 91.320,265.617 90.869,261.583 90.499 C 257.550 90.130,253.950 89.793,253.583 89.751 C 252.175 89.589,246.158 89.534,244.250 89.665 M269.000 105.002 C 273.669 105.180,280.573 105.588,283.083 105.834 C 301.742 107.667,320.221 110.967,331.014 114.395 C 337.670 116.509,339.045 117.950,343.391 127.375 C 343.634 127.902,344.017 128.727,344.241 129.208 C 344.676 130.141,345.213 131.402,346.318 134.083 C 346.696 135.000,347.079 135.880,347.169 136.038 C 347.259 136.197,347.600 137.022,347.927 137.872 C 348.254 138.721,348.825 140.204,349.196 141.167 C 352.354 149.365,355.527 159.140,357.394 166.417 C 357.629 167.333,357.928 168.496,358.058 169.000 C 359.706 175.380,361.382 183.591,362.413 190.333 C 362.729 192.396,363.067 194.533,363.164 195.083 C 363.387 196.344,364.332 204.416,364.333 205.072 C 364.334 205.836,363.693 206.978,363.010 207.430 C 362.354 207.864,362.056 207.924,354.250 209.184 C 351.958 209.554,348.246 210.155,346.000 210.519 C 339.039 211.648,337.862 211.812,334.083 212.174 C 325.467 213.001,318.815 213.148,307.333 212.762 C 302.979 212.615,294.641 212.351,288.804 212.174 C 275.359 211.767,276.145 211.991,274.036 207.967 C 271.116 202.398,265.500 191.292,265.500 191.088 C 265.500 191.043,265.245 190.462,264.934 189.795 C 264.623 189.129,263.867 187.383,263.253 185.917 C 262.640 184.450,262.039 183.025,261.917 182.750 C 261.089 180.883,257.747 171.335,256.987 168.667 C 256.724 167.742,256.742 167.802,256.620 167.500 C 256.311 166.739,254.376 159.234,253.333 154.750 C 252.971 153.192,252.369 150.642,251.996 149.083 C 251.622 147.525,251.065 145.162,250.757 143.833 C 250.450 142.504,249.929 140.292,249.600 138.917 C 248.704 135.173,248.618 135.362,251.667 134.333 C 256.444 132.721,261.070 133.154,262.421 135.341 C 262.568 135.579,263.843 136.500,264.025 136.500 C 264.463 136.500,263.954 135.161,262.950 133.667 C 260.356 129.807,255.244 128.812,250.198 131.183 C 249.437 131.540,248.777 131.833,248.733 131.833 C 248.689 131.833,248.187 132.049,247.618 132.313 C 247.049 132.577,245.646 133.221,244.500 133.745 C 243.354 134.268,242.117 134.833,241.750 135.001 C 236.221 137.530,236.195 137.537,231.167 137.615 C 225.952 137.696,226.051 137.666,227.125 138.861 C 229.089 141.047,233.312 141.719,237.789 140.559 C 238.689 140.325,238.888 140.544,240.044 143.037 C 241.842 146.917,241.955 147.172,244.010 152.000 C 249.326 164.490,254.189 180.323,257.190 194.917 C 259.160 204.493,259.541 207.353,258.924 207.925 C 258.201 208.595,257.929 208.528,252.083 206.249 C 250.525 205.642,248.875 205.005,248.417 204.835 C 246.033 203.950,244.381 203.314,244.083 203.167 C 243.900 203.076,243.037 202.735,242.167 202.409 C 238.434 201.010,237.891 200.796,236.877 200.327 C 236.290 200.056,235.779 199.833,235.741 199.833 C 235.407 199.833,230.406 197.214,228.619 196.104 C 226.591 194.843,223.605 192.779,223.167 192.334 C 223.121 192.287,222.521 191.800,221.833 191.250 C 218.013 188.196,212.905 182.434,210.015 177.917 C 209.429 177.000,208.817 176.056,208.656 175.819 C 206.831 173.131,204.531 167.636,203.885 164.417 C 203.573 162.867,203.528 134.552,203.814 120.339 L 203.917 115.262 208.750 114.638 C 211.408 114.295,214.071 113.938,214.667 113.844 C 218.003 113.319,218.510 113.555,221.297 116.929 C 221.455 117.120,221.958 117.715,222.417 118.251 C 222.875 118.788,223.438 119.469,223.667 119.764 C 223.896 120.060,225.569 122.069,227.386 124.230 C 231.566 129.204,231.221 129.063,235.104 127.404 C 236.056 126.997,237.190 126.525,237.626 126.355 C 238.061 126.184,239.579 125.557,241.000 124.962 C 242.421 124.366,243.874 123.776,244.228 123.649 C 245.597 123.160,245.639 122.945,245.161 118.862 C 244.371 112.116,247.576 106.638,253.167 105.178 C 254.656 104.789,261.418 104.714,269.000 105.002 M172.937 108.452 C 172.871 108.518,171.827 108.846,170.617 109.183 C 169.407 109.519,167.517 110.056,166.417 110.375 C 165.317 110.695,163.179 111.312,161.667 111.746 C 160.154 112.180,157.904 112.830,156.667 113.190 C 155.429 113.551,153.904 113.987,153.277 114.160 C 152.650 114.333,152.118 114.499,152.094 114.529 C 152.071 114.559,151.852 127.933,151.607 144.250 C 150.535 215.771,149.836 260.172,149.730 263.438 L 149.615 266.960 150.182 267.225 C 150.495 267.372,151.462 267.752,152.333 268.072 C 154.155 268.741,157.486 269.991,162.583 271.919 C 163.408 272.231,165.096 272.869,166.333 273.337 C 170.268 274.825,171.347 275.209,171.414 275.142 C 171.450 275.106,171.671 259.972,171.906 241.510 C 172.141 223.049,172.352 207.926,172.375 207.903 C 172.398 207.880,173.711 207.979,175.294 208.123 C 176.876 208.267,178.211 208.344,178.260 208.295 C 178.330 208.226,179.001 165.960,178.933 165.902 C 178.924 165.895,177.620 165.960,176.035 166.048 C 174.450 166.136,173.117 166.172,173.072 166.128 C 172.993 166.049,173.555 121.740,173.748 112.875 L 173.847 108.333 173.451 108.333 C 173.234 108.333,173.002 108.387,172.937 108.452 M253.250 120.170 C 252.792 120.241,252.229 120.343,252.000 120.396 C 251.771 120.449,251.227 120.575,250.792 120.676 C 249.592 120.955,249.803 121.231,251.458 121.549 C 258.084 122.822,263.242 127.358,265.520 133.917 C 266.011 135.332,266.231 135.762,266.482 135.802 C 267.156 135.908,271.495 134.328,271.591 133.941 C 271.733 133.369,269.315 128.190,268.662 127.667 C 268.605 127.621,268.370 127.303,268.140 126.960 C 264.879 122.100,258.775 119.317,253.250 120.170 M117.833 124.278 C 113.466 124.868,108.800 127.842,105.338 132.244 C 104.319 133.540,102.333 136.401,102.333 136.574 C 102.333 136.622,102.048 137.131,101.700 137.705 C 95.694 147.609,93.347 163.895,96.504 173.750 C 96.592 174.025,96.886 175.000,97.158 175.917 C 97.777 178.011,98.351 179.563,99.111 181.193 L 99.705 182.470 98.633 183.860 C 92.738 191.506,89.667 201.044,89.667 211.707 C 89.667 214.465,89.737 215.389,90.263 219.500 C 91.103 226.070,94.219 234.586,97.690 239.800 C 97.952 240.195,98.278 240.731,98.413 240.993 C 98.548 241.254,98.755 241.569,98.873 241.693 C 98.991 241.816,99.230 242.142,99.403 242.417 C 101.155 245.195,105.891 249.788,108.167 250.917 C 108.487 251.077,108.862 251.299,109.000 251.412 C 109.138 251.525,109.975 251.925,110.861 252.301 C 115.914 254.443,119.977 253.985,124.333 250.784 C 125.021 250.278,125.593 249.876,125.606 249.891 C 125.633 249.922,126.992 253.652,127.771 255.833 C 128.082 256.704,128.400 257.567,128.479 257.750 C 128.557 257.933,128.736 258.353,128.878 258.682 C 129.038 259.053,129.315 259.350,129.610 259.464 C 129.870 259.565,131.208 260.070,132.583 260.585 C 137.033 262.254,139.067 263.026,139.860 263.348 C 140.287 263.521,141.187 263.857,141.860 264.094 C 142.533 264.331,143.308 264.624,143.583 264.745 C 143.858 264.866,144.608 265.156,145.250 265.390 C 145.892 265.624,146.810 265.969,147.292 266.157 C 148.311 266.555,148.286 266.629,147.742 264.825 C 147.508 264.050,147.023 262.442,146.663 261.250 C 146.304 260.058,145.702 258.071,145.326 256.833 C 144.951 255.596,144.384 253.721,144.067 252.667 C 143.390 250.420,143.411 250.488,143.287 250.167 C 143.233 250.029,142.919 248.979,142.588 247.833 C 141.838 245.237,141.272 243.345,140.197 239.833 C 138.736 235.065,137.643 231.456,137.309 230.303 L 136.987 229.189 137.650 226.969 C 138.382 224.522,138.542 223.869,139.006 221.417 C 139.179 220.500,139.363 219.563,139.413 219.333 C 139.966 216.820,140.594 208.281,140.401 205.901 L 140.289 204.514 139.603 204.422 C 139.225 204.371,136.854 204.145,134.333 203.918 C 127.678 203.321,128.422 203.522,127.991 202.200 C 127.790 201.586,127.527 200.858,127.405 200.583 C 127.283 200.308,126.652 198.621,126.003 196.833 C 125.353 195.046,124.751 193.433,124.664 193.250 C 124.510 192.926,124.123 191.867,122.897 188.417 C 122.571 187.500,122.204 186.525,122.082 186.250 C 121.960 185.975,121.657 185.150,121.409 184.417 C 121.160 183.683,120.859 182.858,120.739 182.583 C 120.502 182.038,118.664 177.071,117.471 173.750 C 117.207 173.017,116.943 172.304,116.885 172.167 C 116.827 172.029,116.766 171.879,116.750 171.833 C 116.734 171.787,116.675 171.637,116.618 171.500 C 116.376 170.915,115.099 167.425,114.422 165.500 C 112.089 158.864,113.347 154.500,117.591 154.500 C 122.081 154.500,124.456 159.016,122.937 164.667 C 122.307 167.012,122.209 167.319,121.725 168.460 C 121.481 169.034,121.312 169.532,121.349 169.566 C 121.400 169.614,136.357 168.733,136.433 168.678 C 136.577 168.573,136.636 154.060,136.501 151.917 C 135.561 137.002,129.654 126.347,121.250 124.403 C 120.698 124.276,118.457 124.193,117.833 124.278 M359.250 127.163 C 358.975 127.236,358.281 127.389,357.708 127.504 C 357.135 127.618,356.667 127.799,356.667 127.906 C 356.667 128.012,357.132 128.179,357.708 128.279 C 362.822 129.162,367.438 132.963,369.360 137.874 C 369.728 138.814,370.100 139.760,370.186 139.976 C 370.377 140.456,370.713 140.414,373.117 139.605 L 374.750 139.056 374.717 138.351 C 374.615 136.133,370.813 130.891,367.974 129.055 C 365.402 127.391,361.544 126.554,359.250 127.163 M86.000 133.532 C 85.404 133.709,83.904 134.140,82.667 134.491 C 81.429 134.841,79.329 135.440,78.000 135.822 C 75.294 136.599,72.149 137.494,68.917 138.406 C 67.725 138.743,66.450 139.119,66.083 139.242 L 65.417 139.466 65.369 141.163 C 65.343 142.096,65.138 150.223,64.915 159.222 C 64.691 168.221,64.198 187.883,63.820 202.917 C 63.442 217.950,63.121 231.215,63.108 232.393 L 63.083 234.537 64.417 235.023 C 65.150 235.291,66.387 235.736,67.167 236.013 C 67.946 236.289,68.733 236.586,68.917 236.673 C 69.100 236.759,70.000 237.099,70.917 237.427 C 72.717 238.072,75.015 238.909,77.917 239.975 C 81.897 241.437,84.424 242.350,84.583 242.382 C 84.822 242.432,84.789 243.593,85.427 213.417 C 85.749 198.200,86.264 173.938,86.572 159.500 C 86.880 145.063,87.121 133.241,87.108 133.230 C 87.094 133.220,86.596 133.355,86.000 133.532 M268.500 137.363 C 263.389 138.711,263.414 138.688,263.656 141.711 C 263.888 144.615,264.312 145.006,267.364 145.131 C 269.856 145.234,269.887 145.312,267.699 145.981 C 262.428 147.591,261.966 147.752,261.813 148.037 C 261.589 148.457,261.853 148.856,262.611 149.242 C 266.810 151.377,270.669 156.848,271.493 161.833 C 271.850 163.996,271.919 168.221,271.601 168.485 C 271.215 168.806,271.234 168.836,269.405 165.200 C 267.802 162.014,267.782 161.983,267.279 162.033 C 266.657 162.095,266.632 162.177,266.243 165.367 C 265.837 168.687,266.096 169.450,268.077 170.778 C 272.474 173.726,272.483 173.727,276.745 171.667 C 278.214 170.957,280.074 170.068,280.877 169.692 C 282.735 168.821,282.799 168.698,282.528 166.531 C 281.977 162.117,279.045 149.931,277.929 147.417 C 277.807 147.142,277.539 146.392,277.333 145.750 C 277.127 145.108,276.826 144.246,276.663 143.833 C 276.500 143.421,276.198 142.633,275.991 142.083 C 275.784 141.533,275.481 140.777,275.316 140.403 C 275.152 140.029,274.858 139.317,274.662 138.820 C 273.515 135.902,273.790 135.967,268.500 137.363 M374.583 140.356 C 374.308 140.448,372.979 140.777,371.630 141.088 C 368.090 141.902,367.949 142.037,368.118 144.449 C 368.269 146.616,368.607 146.918,371.056 147.085 C 372.041 147.153,372.815 147.240,372.775 147.280 C 372.736 147.320,371.776 147.617,370.643 147.939 C 369.510 148.262,368.157 148.647,367.636 148.795 C 366.120 149.227,366.189 149.645,367.958 150.731 C 371.741 153.055,373.996 157.402,374.127 162.625 C 374.218 166.220,374.117 166.272,372.697 163.375 C 370.752 159.410,370.491 159.253,370.051 161.787 C 369.435 165.332,369.578 165.931,371.354 167.268 C 374.199 169.408,374.893 169.518,377.583 168.256 C 380.078 167.086,380.496 166.893,381.541 166.437 C 382.911 165.839,382.929 165.756,382.438 162.497 C 381.485 156.178,379.699 149.505,377.375 143.583 C 376.017 140.122,375.852 139.931,374.583 140.356 M53.583 142.773 C 52.171 143.203,50.102 143.806,45.750 145.056 C 44.283 145.477,42.033 146.128,40.750 146.503 C 39.467 146.878,37.524 147.439,36.433 147.750 C 35.342 148.062,34.396 148.377,34.329 148.450 C 34.263 148.523,34.128 151.208,34.030 154.417 C 33.829 161.023,32.664 197.313,32.169 212.412 C 31.988 217.910,31.895 222.457,31.962 222.517 C 32.029 222.577,32.496 222.757,33.000 222.918 C 33.504 223.079,33.992 223.266,34.083 223.333 C 34.175 223.401,35.000 223.725,35.917 224.054 C 36.833 224.383,38.483 224.998,39.583 225.420 C 40.683 225.842,42.296 226.455,43.167 226.781 C 44.038 227.108,45.500 227.656,46.417 228.000 C 47.333 228.343,48.908 228.927,49.917 229.297 C 50.925 229.668,52.117 230.129,52.565 230.323 C 53.014 230.516,53.426 230.630,53.482 230.574 C 53.538 230.518,53.671 227.123,53.778 223.028 C 53.885 218.933,54.089 211.458,54.233 206.417 C 54.377 201.375,54.495 197.021,54.497 196.742 L 54.500 196.234 56.708 196.438 C 57.923 196.550,59.262 196.693,59.685 196.757 L 60.452 196.872 60.550 193.311 C 60.747 186.119,60.991 177.691,61.065 175.519 L 61.141 173.288 58.154 173.408 L 55.167 173.528 55.167 169.155 C 55.167 166.750,55.239 162.225,55.327 159.099 C 55.416 155.974,55.520 150.923,55.560 147.875 L 55.632 142.333 55.274 142.351 C 55.078 142.360,54.317 142.550,53.583 142.773 M109.849 206.750 C 110.153 207.402,111.804 211.347,112.953 214.167 C 113.270 214.946,113.633 215.808,113.759 216.083 C 115.839 220.628,115.870 221.945,113.912 222.763 C 108.915 224.850,104.775 214.262,108.044 207.756 C 108.510 206.830,109.405 205.667,109.477 205.894 C 109.511 205.998,109.678 206.383,109.849 206.750 M207.444 211.314 C 207.796 211.407,209.021 211.678,210.167 211.916 C 215.031 212.925,221.752 215.235,226.368 217.484 C 232.437 220.441,236.139 223.566,239.917 228.920 C 241.125 230.632,243.286 233.820,243.756 234.583 C 247.964 241.420,251.440 247.875,254.839 255.167 C 255.587 256.771,256.417 258.544,256.683 259.107 C 256.949 259.670,257.167 260.175,257.167 260.229 C 257.167 260.283,257.467 260.967,257.833 261.750 C 258.200 262.533,258.500 263.207,258.500 263.248 C 258.500 263.290,258.680 263.719,258.901 264.203 C 259.370 265.234,260.160 267.144,261.506 270.498 C 262.808 273.742,262.637 273.623,267.583 274.745 C 268.958 275.057,271.396 275.627,273.000 276.011 C 277.904 277.184,277.780 277.254,276.131 274.244 C 274.509 271.284,274.351 271.381,279.609 272.097 C 281.795 272.394,283.771 272.682,284.000 272.736 C 284.229 272.790,286.292 273.098,288.583 273.420 C 297.096 274.615,297.131 274.623,298.507 275.656 C 299.675 276.534,300.402 277.435,301.075 278.839 C 302.039 280.852,301.945 280.876,294.917 280.412 C 294.550 280.387,293.425 280.318,292.417 280.257 C 290.230 280.125,284.641 279.571,283.049 279.328 C 282.426 279.234,279.554 278.859,276.667 278.496 C 271.369 277.830,267.159 277.197,265.167 276.769 C 262.487 276.192,257.488 275.108,254.667 274.492 C 246.640 272.740,240.353 271.385,236.583 270.595 C 235.025 270.269,233.525 269.931,233.250 269.845 C 231.289 269.230,228.501 268.901,228.936 269.336 C 229.695 270.095,240.482 275.809,242.000 276.256 C 242.229 276.324,242.867 276.583,243.417 276.832 C 243.967 277.081,244.829 277.418,245.333 277.581 C 245.838 277.744,246.325 277.933,246.417 278.000 C 247.301 278.653,255.855 281.014,261.500 282.164 C 265.608 283.001,265.272 282.421,266.419 290.667 C 267.034 295.094,267.041 295.544,266.504 295.831 C 266.023 296.089,258.269 294.816,253.833 293.751 C 252.871 293.520,251.333 293.151,250.417 292.931 C 248.025 292.358,245.210 291.587,243.000 290.901 C 239.885 289.935,235.929 288.627,235.750 288.504 C 235.658 288.441,234.871 288.143,234.000 287.841 C 233.129 287.539,232.192 287.193,231.917 287.072 C 231.181 286.748,228.623 285.759,227.000 285.173 C 226.221 284.891,225.433 284.587,225.250 284.496 C 225.067 284.406,224.392 284.150,223.750 283.928 C 223.108 283.705,221.421 283.102,220.000 282.587 C 218.579 282.073,216.667 281.398,215.750 281.088 C 214.229 280.574,211.956 279.773,208.417 278.503 C 203.701 276.811,202.291 276.143,201.514 275.237 C 201.081 274.732,200.458 272.970,200.590 272.626 C 200.634 272.511,200.974 264.954,201.344 255.833 C 202.832 219.232,203.130 212.404,203.250 212.117 C 203.679 211.090,205.373 210.765,207.444 211.314 M366.521 213.442 C 366.787 213.762,366.941 215.117,367.671 223.562 C 368.055 228.012,368.154 229.811,368.030 230.084 C 367.657 230.902,356.436 234.050,347.833 235.750 C 346.229 236.067,344.729 236.369,344.500 236.420 C 341.499 237.096,332.379 238.317,327.167 238.740 C 325.379 238.886,323.204 239.078,322.333 239.168 C 312.504 240.184,291.712 239.429,280.667 237.656 C 273.704 236.539,273.507 236.519,272.762 236.858 C 272.099 237.160,271.345 239.750,271.593 240.876 C 271.828 241.947,271.671 241.827,278.968 246.514 C 281.592 248.199,287.229 251.288,287.791 251.348 C 287.860 251.356,287.992 251.424,288.083 251.500 C 288.292 251.672,291.139 252.887,293.667 253.881 C 296.627 255.045,300.261 256.466,301.917 257.105 C 302.742 257.423,303.767 257.840,304.196 258.031 C 305.455 258.593,305.518 258.499,305.406 256.213 C 305.226 252.534,305.061 251.450,304.492 250.223 C 303.961 249.078,303.644 248.403,301.939 244.788 C 300.624 242.001,300.506 242.239,303.167 242.310 C 309.762 242.486,309.594 242.439,312.190 244.833 C 313.134 245.704,314.921 247.344,316.161 248.478 C 317.402 249.611,318.754 250.856,319.167 251.243 C 319.579 251.630,320.733 252.679,321.731 253.573 C 322.728 254.466,323.703 255.360,323.897 255.559 C 325.592 257.292,325.993 257.413,328.364 256.906 C 329.035 256.763,331.196 256.344,333.167 255.974 C 335.137 255.604,338.287 255.009,340.167 254.651 C 342.046 254.293,345.158 253.702,347.083 253.338 C 350.673 252.658,351.982 252.401,352.607 252.254 C 353.113 252.134,352.972 252.617,355.975 240.754 C 356.733 237.762,356.639 237.891,358.542 237.251 C 359.298 236.997,359.992 236.734,360.083 236.666 C 360.175 236.599,360.550 236.448,360.917 236.332 C 361.283 236.216,362.408 235.803,363.417 235.414 C 364.425 235.025,365.427 234.652,365.643 234.586 C 366.095 234.448,366.109 233.968,365.526 238.677 C 365.156 241.663,364.770 247.455,364.861 248.667 L 364.917 249.417 366.087 247.667 C 368.025 244.768,369.042 243.476,369.235 243.668 C 369.342 243.775,369.409 245.121,369.412 247.212 L 369.417 250.583 368.220 253.020 C 366.681 256.157,366.712 256.016,366.428 261.129 C 366.295 263.525,366.103 265.641,366.001 265.832 C 365.835 266.142,363.833 267.266,363.833 267.049 C 363.833 266.999,363.740 267.035,363.625 267.127 C 363.066 267.578,354.895 270.582,349.917 272.167 C 346.072 273.391,339.241 275.213,334.000 276.412 C 328.758 277.611,320.594 278.907,315.083 279.415 C 311.867 279.712,311.429 279.510,310.921 277.500 C 310.770 276.904,310.393 275.592,310.084 274.583 C 309.775 273.575,309.391 272.262,309.232 271.667 C 308.364 268.418,306.493 265.700,303.600 263.487 C 303.070 263.082,302.325 262.513,301.943 262.222 C 297.973 259.201,293.363 256.697,287.833 254.557 C 287.237 254.327,286.375 253.970,285.917 253.765 C 285.458 253.559,284.596 253.216,284.000 253.002 C 283.404 252.788,282.839 252.554,282.743 252.482 C 282.648 252.410,281.951 252.123,281.194 251.843 C 280.437 251.564,279.427 251.158,278.951 250.941 C 278.474 250.724,277.896 250.488,277.667 250.418 C 277.438 250.347,276.950 250.153,276.583 249.985 C 276.217 249.817,275.354 249.460,274.667 249.191 C 268.418 246.747,267.577 246.328,267.057 245.391 C 266.705 244.756,266.568 244.150,265.350 237.833 C 264.550 233.687,264.425 233.414,262.526 231.672 C 261.688 230.904,261.029 230.248,261.062 230.216 C 261.116 230.162,267.495 231.187,268.500 231.410 C 269.361 231.602,275.829 232.711,277.777 233.002 C 281.015 233.485,284.069 233.553,289.399 233.263 C 295.638 232.923,295.507 233.042,293.042 229.956 C 291.064 227.481,290.995 227.396,290.606 226.944 C 290.435 226.746,290.099 226.321,289.859 226.000 C 289.620 225.679,288.704 224.517,287.826 223.417 C 286.947 222.317,285.651 220.693,284.947 219.809 C 283.704 218.248,283.427 217.628,283.892 217.449 C 284.016 217.402,288.159 217.475,293.100 217.612 C 313.426 218.175,331.104 217.543,347.583 215.664 C 351.772 215.186,359.521 214.191,360.000 214.069 C 360.571 213.924,365.312 213.208,365.855 213.185 C 366.095 213.175,366.395 213.291,366.521 213.442 M367.777 270.427 C 367.876 270.684,367.567 272.328,366.747 275.917 C 366.187 278.366,366.221 278.282,365.467 279.100 C 364.630 280.008,364.518 280.047,355.854 282.416 C 354.719 282.727,353.669 283.030,353.520 283.091 C 353.372 283.151,352.200 283.488,350.917 283.839 C 349.633 284.190,347.496 284.786,346.167 285.163 C 344.837 285.540,342.700 286.144,341.417 286.505 C 340.133 286.865,337.996 287.471,336.667 287.850 C 335.337 288.229,333.200 288.832,331.917 289.190 C 327.453 290.437,325.415 291.008,325.167 291.081 C 324.817 291.183,320.528 292.400,317.833 293.160 C 316.596 293.510,314.458 294.114,313.083 294.503 C 306.059 296.490,302.076 297.612,298.917 298.493 C 297.633 298.851,295.496 299.455,294.167 299.837 C 290.880 300.781,290.666 300.819,288.667 300.819 C 286.511 300.819,287.028 300.932,278.083 298.511 C 272.763 297.071,272.843 297.152,271.916 292.250 C 271.569 290.417,271.111 288.017,270.899 286.917 C 270.241 283.503,270.331 283.328,272.524 283.746 C 276.129 284.434,280.928 285.079,285.167 285.446 C 289.543 285.824,304.609 285.875,309.167 285.527 C 314.320 285.134,323.683 283.961,326.000 283.420 C 326.229 283.366,327.429 283.134,328.667 282.904 C 329.904 282.675,331.517 282.341,332.250 282.163 C 332.983 281.985,334.671 281.582,336.000 281.268 C 344.148 279.339,356.003 275.355,362.125 272.488 C 362.699 272.220,363.202 272.000,363.244 272.000 C 363.286 272.000,364.017 271.678,364.869 271.285 C 365.720 270.892,366.604 270.485,366.833 270.380 C 367.416 270.113,367.661 270.125,367.777 270.427 " stroke="none" fill="#042c6c" fill-rule="evenodd"></path><path id="path1" d="M29.333 226.153 C 28.096 226.777,24.844 228.397,22.108 229.754 L 17.132 232.220 17.704 232.498 C 18.018 232.651,18.870 232.987,19.596 233.245 L 20.917 233.713 22.718 232.857 C 23.709 232.386,24.548 232.000,24.583 232.000 C 24.618 232.000,25.284 231.700,26.063 231.333 C 27.788 230.521,27.450 230.513,29.797 231.426 C 30.871 231.844,32.313 232.405,33.000 232.672 C 33.688 232.940,35.075 233.470,36.083 233.851 C 38.380 234.718,38.338 234.667,37.202 235.204 C 34.988 236.252,33.040 237.150,32.427 237.404 C 31.578 237.756,31.774 237.955,33.583 238.586 C 34.317 238.841,35.155 239.158,35.447 239.289 C 36.026 239.549,35.703 239.659,39.250 237.996 C 39.800 237.739,41.108 237.139,42.156 236.664 C 44.034 235.813,45.584 235.093,48.292 233.813 C 50.560 232.741,50.036 231.956,46.120 230.560 C 45.458 230.324,44.692 230.029,44.417 229.904 C 44.142 229.778,43.204 229.415,42.333 229.096 C 39.509 228.062,37.591 227.335,37.250 227.169 C 37.067 227.080,36.354 226.809,35.667 226.568 C 34.979 226.326,34.084 225.979,33.677 225.796 C 33.025 225.503,31.660 224.985,31.604 225.009 C 31.593 225.014,30.571 225.529,29.333 226.153 M36.667 228.768 C 37.721 229.175,38.958 229.662,39.417 229.850 C 39.875 230.039,40.925 230.434,41.750 230.728 C 42.575 231.022,43.510 231.401,43.827 231.570 L 44.404 231.879 43.577 232.289 C 43.122 232.514,42.240 232.914,41.617 233.177 L 40.485 233.654 39.284 233.225 C 38.624 232.989,37.783 232.665,37.417 232.505 C 37.050 232.345,36.150 232.003,35.417 231.746 C 34.683 231.488,34.008 231.227,33.917 231.165 C 33.825 231.104,33.037 230.802,32.167 230.493 C 31.296 230.185,30.408 229.843,30.193 229.732 L 29.803 229.532 30.193 229.408 C 30.408 229.340,31.258 228.960,32.083 228.562 C 33.863 227.706,33.915 227.708,36.667 228.768 M52.750 233.830 C 52.383 234.008,51.521 234.413,50.833 234.729 C 49.695 235.252,47.318 236.349,43.385 238.166 C 40.425 239.533,40.087 239.739,40.031 240.211 C 39.986 240.597,40.951 241.500,41.408 241.500 C 41.453 241.500,41.886 241.679,42.370 241.898 C 42.854 242.117,43.813 242.495,44.500 242.738 C 45.188 242.981,45.981 243.286,46.262 243.417 C 46.544 243.548,47.369 243.872,48.096 244.138 C 51.787 245.490,52.777 245.865,53.064 246.024 C 53.581 246.310,56.004 246.994,57.139 247.176 C 58.934 247.462,59.422 247.303,65.583 244.421 C 68.526 243.045,69.316 242.673,70.874 241.936 C 71.768 241.513,72.570 241.167,72.656 241.167 C 73.101 241.167,72.936 240.810,72.382 240.574 C 71.299 240.112,69.038 239.333,68.782 239.333 C 68.508 239.333,66.014 240.450,60.450 243.066 C 59.552 243.488,58.786 243.833,58.748 243.833 C 58.710 243.833,58.107 244.105,57.408 244.437 C 55.977 245.116,55.324 245.138,54.000 244.548 C 53.587 244.364,52.650 244.003,51.917 243.746 C 51.183 243.488,50.508 243.225,50.417 243.161 C 50.325 243.098,49.538 242.798,48.667 242.495 C 47.796 242.191,47.008 241.891,46.917 241.827 C 46.825 241.763,46.470 241.620,46.127 241.510 C 45.178 241.204,45.225 241.057,46.452 240.487 C 47.074 240.199,48.207 239.671,48.968 239.315 C 49.730 238.958,50.382 238.667,50.418 238.667 C 50.454 238.667,51.219 238.321,52.117 237.898 C 53.015 237.475,54.387 236.837,55.167 236.480 C 58.278 235.055,58.226 235.139,56.417 234.481 C 55.683 234.214,54.847 233.884,54.558 233.748 C 53.871 233.423,53.554 233.438,52.750 233.830 M74.625 242.291 C 73.745 242.683,73.399 243.000,73.850 243.000 C 73.951 243.000,74.269 243.110,74.558 243.244 C 74.847 243.378,75.646 243.686,76.333 243.928 C 77.021 244.170,77.808 244.472,78.083 244.598 C 78.358 244.725,79.088 245.003,79.704 245.218 C 80.695 245.563,81.030 246.000,80.304 246.000 C 80.189 246.000,78.123 246.938,74.167 248.786 C 71.354 250.099,69.871 250.790,69.042 251.174 C 67.935 251.686,67.939 251.704,69.292 252.211 C 69.910 252.443,70.845 252.800,71.368 253.004 L 72.319 253.375 73.746 252.688 C 74.531 252.309,75.206 252.000,75.247 252.000 C 75.319 252.000,76.281 251.558,79.467 250.061 C 80.319 249.661,81.046 249.333,81.083 249.333 C 81.120 249.333,81.943 248.959,82.912 248.502 C 83.881 248.045,84.863 247.624,85.095 247.566 C 85.472 247.471,88.242 248.304,88.750 248.664 C 88.842 248.729,89.629 249.027,90.500 249.326 C 91.371 249.625,92.155 249.937,92.242 250.018 C 92.501 250.262,92.863 250.188,93.917 249.679 C 94.752 249.275,94.862 249.175,94.583 249.073 C 94.400 249.006,93.808 248.769,93.267 248.546 C 92.727 248.324,91.752 247.955,91.101 247.727 C 90.449 247.499,89.692 247.208,89.417 247.080 C 89.142 246.952,88.279 246.614,87.500 246.328 C 86.721 246.043,85.296 245.507,84.333 245.139 C 83.371 244.771,81.818 244.183,80.883 243.833 C 79.948 243.483,79.105 243.148,79.010 243.090 C 78.868 243.002,76.776 242.248,75.833 241.945 C 75.696 241.901,75.152 242.056,74.625 242.291 M96.167 250.830 C 95.846 250.899,94.271 251.571,92.667 252.324 C 86.594 255.174,85.009 255.907,84.387 256.154 C 83.047 256.685,83.755 257.693,86.091 258.581 C 86.728 258.823,87.475 259.124,87.750 259.248 C 88.025 259.373,89.000 259.752,89.917 260.091 C 94.084 261.632,94.994 261.977,95.144 262.070 C 95.325 262.181,98.139 263.206,99.417 263.625 C 99.943 263.797,100.833 263.901,101.833 263.905 C 103.552 263.912,103.122 264.053,106.955 262.227 C 107.435 261.999,108.410 261.549,109.122 261.229 C 109.834 260.908,110.865 260.444,111.412 260.198 C 116.470 257.921,116.588 257.353,112.317 255.836 C 111.455 255.530,110.675 255.223,110.583 255.154 C 110.492 255.085,109.742 254.796,108.917 254.511 C 108.092 254.227,107.186 253.885,106.904 253.753 C 106.372 253.503,104.822 252.918,101.833 251.840 C 100.871 251.492,99.971 251.164,99.833 251.109 C 98.984 250.771,97.109 250.628,96.167 250.830 M101.290 253.440 C 102.001 253.682,102.658 253.934,102.750 253.999 C 102.842 254.065,103.517 254.325,104.250 254.578 C 104.983 254.831,105.808 255.139,106.083 255.263 C 106.358 255.386,107.221 255.717,108.000 255.997 C 109.924 256.689,110.744 257.167,110.006 257.167 C 109.853 257.167,109.214 257.454,105.700 259.105 C 104.848 259.506,104.120 259.833,104.084 259.833 C 104.047 259.833,103.207 260.217,102.217 260.685 C 99.757 261.850,98.216 261.806,95.875 260.507 C 95.714 260.419,95.058 260.162,94.417 259.938 C 93.775 259.714,92.688 259.310,92.000 259.040 C 91.313 258.770,90.394 258.420,89.958 258.261 C 88.978 257.904,88.967 257.740,89.901 257.340 C 90.304 257.167,91.111 256.801,91.692 256.526 C 93.790 255.536,95.688 254.667,95.750 254.667 C 95.786 254.667,96.587 254.295,97.532 253.841 C 99.545 252.873,99.605 252.866,101.290 253.440 M129.333 263.784 C 129.098 263.870,128.652 264.075,125.458 265.568 C 123.555 266.457,123.767 267.234,126.167 268.161 C 126.671 268.356,127.314 268.621,127.596 268.751 C 127.877 268.881,128.702 269.205,129.429 269.471 C 132.509 270.599,134.114 271.206,134.583 271.420 C 134.858 271.546,135.627 271.847,136.292 272.089 C 136.956 272.331,137.500 272.579,137.499 272.640 C 137.498 272.742,134.121 274.349,133.449 274.566 C 133.151 274.663,131.551 274.207,130.583 273.751 C 130.308 273.621,129.446 273.281,128.667 272.995 C 127.888 272.709,126.500 272.190,125.583 271.841 C 124.667 271.493,123.167 270.932,122.250 270.595 C 121.333 270.258,120.454 269.912,120.296 269.826 C 120.138 269.740,119.568 269.517,119.029 269.330 L 118.049 268.991 117.238 269.338 C 115.807 269.952,115.818 270.000,117.522 270.609 C 118.371 270.912,119.294 271.264,119.574 271.391 C 119.854 271.519,120.683 271.830,121.417 272.082 C 122.150 272.335,122.825 272.597,122.917 272.663 C 123.008 272.730,123.796 273.032,124.667 273.333 C 125.537 273.635,126.325 273.934,126.417 273.997 C 126.508 274.061,127.296 274.362,128.167 274.667 C 129.037 274.971,129.825 275.276,129.917 275.344 C 130.008 275.411,131.061 275.774,132.256 276.150 C 135.388 277.135,136.032 277.111,138.698 275.905 C 139.827 275.394,141.182 274.784,141.711 274.549 C 143.472 273.764,143.078 272.830,140.592 271.896 C 139.946 271.653,139.117 271.325,138.750 271.168 C 138.383 271.010,137.483 270.670,136.750 270.412 C 136.017 270.155,135.342 269.893,135.250 269.832 C 135.158 269.771,134.371 269.471,133.500 269.167 C 132.629 268.862,131.842 268.562,131.750 268.500 C 131.658 268.438,131.113 268.216,130.539 268.006 C 129.273 267.543,129.323 267.438,131.163 266.678 C 131.902 266.373,132.547 266.058,132.597 265.978 C 132.720 265.778,133.940 265.796,134.294 266.002 C 134.594 266.178,136.597 266.943,139.333 267.927 C 140.204 268.240,141.045 268.571,141.203 268.663 C 141.360 268.754,142.148 269.057,142.953 269.334 C 143.758 269.612,144.647 269.948,144.929 270.080 C 145.211 270.213,146.073 270.550,146.846 270.830 C 147.618 271.109,148.287 271.356,148.333 271.377 C 148.379 271.399,148.903 271.198,149.496 270.932 C 150.523 270.471,150.556 270.439,150.163 270.277 C 149.936 270.184,149.450 269.980,149.083 269.824 C 148.717 269.668,147.817 269.333,147.083 269.079 C 146.350 268.826,145.675 268.566,145.583 268.503 C 145.492 268.439,144.704 268.138,143.833 267.833 C 142.962 267.529,142.175 267.229,142.083 267.167 C 141.992 267.105,141.204 266.805,140.333 266.500 C 139.462 266.195,138.675 265.894,138.583 265.831 C 138.492 265.767,137.704 265.468,136.833 265.167 C 135.962 264.865,135.174 264.560,135.082 264.489 C 134.373 263.943,130.275 263.441,129.333 263.784 M151.500 272.110 C 151.362 272.156,150.800 272.404,150.250 272.662 C 149.700 272.920,148.688 273.393,148.000 273.714 C 147.313 274.035,146.150 274.578,145.417 274.921 C 144.683 275.264,143.108 275.987,141.917 276.527 C 137.533 278.514,137.760 278.327,139.125 278.829 C 139.652 279.023,140.308 279.283,140.583 279.408 C 142.086 280.090,142.336 280.087,143.847 279.371 C 149.525 276.680,148.822 276.882,150.435 277.480 C 151.158 277.748,152.500 278.240,153.417 278.574 C 154.333 278.907,155.227 279.261,155.403 279.359 C 155.579 279.457,156.350 279.755,157.117 280.021 C 157.884 280.287,158.640 280.573,158.797 280.657 C 158.955 280.740,159.233 280.857,159.415 280.915 C 159.684 281.000,157.016 282.500,156.596 282.500 C 156.164 282.500,153.159 284.172,153.423 284.266 C 153.603 284.330,154.050 284.513,154.417 284.672 C 155.762 285.257,157.423 285.785,157.667 285.704 C 157.804 285.659,158.690 285.257,159.635 284.811 C 160.580 284.365,161.382 284.000,161.417 284.000 C 161.474 284.000,162.986 283.310,165.250 282.252 C 165.708 282.037,167.133 281.374,168.415 280.777 C 172.007 279.107,171.908 278.464,167.833 277.001 C 167.237 276.787,166.675 276.562,166.583 276.501 C 166.492 276.440,165.704 276.142,164.833 275.839 C 163.962 275.536,163.175 275.234,163.083 275.169 C 162.992 275.104,162.204 274.806,161.333 274.505 C 160.462 274.205,159.675 273.903,159.583 273.833 C 159.492 273.764,158.704 273.470,157.833 273.181 C 156.962 272.892,156.100 272.585,155.917 272.498 C 155.048 272.085,152.296 271.844,151.500 272.110 M156.792 274.653 C 157.594 274.920,159.225 275.523,160.417 275.991 C 161.608 276.460,163.219 277.068,163.995 277.342 C 166.199 278.120,166.203 278.100,163.687 279.241 L 161.958 280.025 160.937 279.652 C 160.376 279.447,159.842 279.229,159.750 279.168 C 159.658 279.107,158.871 278.809,158.000 278.505 C 157.129 278.202,156.342 277.902,156.250 277.839 C 156.158 277.775,155.596 277.555,155.000 277.351 C 154.404 277.146,153.333 276.744,152.621 276.457 L 151.325 275.936 152.621 275.334 C 153.333 275.002,154.179 274.609,154.500 274.460 C 155.259 274.106,155.116 274.094,156.792 274.653 M173.481 280.467 C 172.783 280.806,171.695 281.323,171.064 281.615 C 169.935 282.138,168.287 282.909,165.167 284.372 C 164.296 284.781,163.117 285.323,162.546 285.578 C 160.844 286.339,161.089 287.139,163.292 288.005 C 163.819 288.213,164.475 288.482,164.750 288.604 C 165.309 288.851,167.628 289.735,169.954 290.587 C 170.799 290.897,171.632 291.226,171.805 291.318 C 171.978 291.411,172.824 291.725,173.685 292.017 C 174.546 292.310,175.325 292.605,175.417 292.674 C 175.508 292.742,176.221 293.027,177.000 293.306 C 177.779 293.584,178.649 293.904,178.934 294.017 C 179.393 294.198,179.563 294.169,180.469 293.751 C 181.545 293.254,181.618 293.108,180.882 292.923 C 180.633 292.860,180.126 292.674,179.756 292.508 C 179.386 292.343,178.483 292.000,177.750 291.746 C 177.017 291.492,176.342 291.233,176.250 291.169 C 176.158 291.106,175.371 290.805,174.500 290.500 C 173.629 290.195,172.842 289.895,172.750 289.833 C 172.658 289.771,171.871 289.471,171.000 289.167 C 170.129 288.862,169.342 288.559,169.250 288.493 C 169.158 288.428,168.577 288.205,167.958 287.998 C 166.809 287.614,166.540 287.281,167.208 287.072 C 167.415 287.007,168.633 286.472,169.917 285.882 C 171.200 285.293,172.550 284.673,172.917 284.505 C 173.283 284.337,174.221 283.902,175.000 283.539 C 175.779 283.175,176.829 282.702,177.333 282.487 C 178.219 282.111,179.333 281.516,179.333 281.421 C 179.333 281.395,178.865 281.203,178.292 280.993 C 177.719 280.784,177.175 280.560,177.083 280.496 C 176.818 280.312,175.300 279.832,175.012 279.842 C 174.868 279.847,174.179 280.129,173.481 280.467 M195.000 289.147 C 194.588 289.311,193.650 289.728,192.917 290.074 C 191.627 290.682,190.497 291.212,187.958 292.398 C 183.423 294.518,183.500 294.475,183.500 294.887 C 183.500 295.597,184.402 296.136,187.583 297.332 C 188.500 297.677,190.075 298.277,191.083 298.665 C 192.092 299.054,193.479 299.580,194.167 299.835 C 194.854 300.089,195.829 300.464,196.333 300.668 C 196.838 300.872,197.737 301.212,198.333 301.425 C 198.929 301.637,199.883 302.006,200.454 302.244 L 201.491 302.676 202.512 302.161 C 203.074 301.877,203.502 301.613,203.463 301.574 C 203.423 301.534,202.797 301.282,202.071 301.013 C 199.180 299.940,197.568 299.324,197.250 299.169 C 197.067 299.080,196.354 298.809,195.667 298.568 C 194.979 298.326,194.117 297.998,193.750 297.838 C 193.383 297.677,192.483 297.339,191.750 297.085 C 191.017 296.832,190.342 296.569,190.250 296.501 C 190.158 296.433,189.802 296.286,189.458 296.175 C 188.487 295.863,188.772 295.627,191.500 294.489 C 192.004 294.278,192.559 294.011,192.734 293.895 C 192.993 293.721,193.159 293.729,193.650 293.939 C 193.980 294.079,194.775 294.384,195.417 294.615 C 196.058 294.846,196.808 295.137,197.083 295.261 C 197.358 295.386,198.146 295.686,198.833 295.928 C 199.521 296.170,200.308 296.471,200.583 296.596 C 203.175 297.777,204.069 297.932,205.262 297.404 L 206.231 296.976 205.567 296.678 C 205.202 296.514,204.231 296.140,203.410 295.845 C 202.588 295.550,201.692 295.205,201.417 295.078 C 201.142 294.952,200.279 294.614,199.500 294.327 C 195.844 292.984,195.328 292.773,195.451 292.669 C 195.524 292.607,196.183 292.305,196.917 291.997 C 197.650 291.689,198.398 291.339,198.579 291.219 C 199.018 290.926,199.710 290.943,200.464 291.264 C 200.804 291.409,201.608 291.717,202.250 291.948 C 202.892 292.179,203.642 292.470,203.917 292.595 C 204.192 292.719,204.979 293.019,205.667 293.261 C 206.354 293.504,207.142 293.804,207.417 293.930 C 207.692 294.055,208.629 294.419,209.500 294.738 C 210.371 295.057,211.778 295.584,212.627 295.909 C 214.469 296.615,214.407 296.611,215.620 296.072 L 216.583 295.643 216.000 295.386 C 215.351 295.101,212.754 294.109,210.333 293.222 C 209.463 292.902,208.498 292.527,208.190 292.387 C 207.882 292.248,207.132 291.956,206.523 291.738 C 205.915 291.521,204.442 290.959,203.250 290.490 C 199.108 288.858,196.708 288.468,195.000 289.147 M217.290 297.405 C 216.945 297.528,216.570 297.699,216.457 297.785 C 216.343 297.870,215.650 298.196,214.917 298.508 C 211.026 300.165,211.283 300.832,216.521 302.668 C 217.380 302.969,218.158 303.267,218.250 303.331 C 218.342 303.394,219.129 303.695,220.000 304.000 C 220.871 304.305,221.658 304.605,221.750 304.667 C 221.842 304.729,222.629 305.029,223.500 305.333 C 224.371 305.638,225.177 305.959,225.292 306.047 C 225.537 306.236,225.567 306.500,225.343 306.500 C 225.257 306.500,224.454 306.845,223.558 307.266 C 221.352 308.304,221.203 308.315,219.326 307.591 C 218.459 307.257,217.117 306.757,216.343 306.481 C 215.570 306.204,214.799 305.904,214.630 305.814 C 214.462 305.724,213.633 305.397,212.787 305.087 C 210.139 304.117,208.104 303.335,207.533 303.067 C 206.516 302.591,205.963 302.595,205.019 303.089 C 204.048 303.597,204.061 303.651,205.250 304.077 C 205.708 304.241,206.308 304.472,206.583 304.590 C 206.858 304.708,207.833 305.083,208.750 305.423 C 209.667 305.763,211.167 306.326,212.083 306.674 C 213.000 307.023,214.463 307.577,215.333 307.905 C 216.204 308.233,217.067 308.573,217.250 308.659 C 220.756 310.316,224.031 310.790,225.917 309.915 C 226.375 309.702,227.237 309.307,227.833 309.038 C 230.823 307.684,230.855 307.663,230.800 307.112 C 230.721 306.313,229.585 305.735,224.500 303.906 C 223.629 303.593,222.788 303.262,222.630 303.170 C 222.473 303.079,221.686 302.777,220.880 302.499 C 220.075 302.221,219.191 301.888,218.914 301.758 C 218.638 301.628,218.188 301.434,217.914 301.327 L 217.417 301.133 219.000 300.378 C 221.311 299.277,221.913 299.299,224.917 300.600 C 225.500 300.853,227.910 301.769,230.167 302.596 C 231.037 302.915,231.975 303.278,232.250 303.404 C 232.525 303.529,233.313 303.830,234.000 304.072 C 234.688 304.314,235.486 304.622,235.775 304.756 C 236.457 305.073,236.425 305.076,237.539 304.542 C 238.686 303.992,238.699 303.945,237.792 303.676 C 237.402 303.560,236.764 303.321,236.374 303.145 C 235.984 302.968,235.084 302.613,234.374 302.355 C 232.104 301.530,229.760 300.648,229.417 300.490 C 229.002 300.298,226.434 299.325,224.333 298.565 C 223.463 298.250,222.600 297.920,222.417 297.831 C 221.179 297.233,218.416 297.003,217.290 297.405 " stroke="none" fill="#ec3444" fill-rule="evenodd"></path><path id="path2" d="" stroke="none" fill="#043070" fill-rule="evenodd"></path><path id="path3" d="" stroke="none" fill="#403058" fill-rule="evenodd"></path><path id="path4" d="" stroke="none" fill="#043070" fill-rule="evenodd"></path></g></svg>